# This file uses centimeters as units for non-parametric coordinates.

mtllib bord.mtl
g default
v 0.087922 0.040589 -0.087922
v 0.000000 0.040589 -0.124341
v -0.087922 0.040589 -0.087922
v -0.124341 0.040589 0.000000
v -0.087922 0.040589 0.087922
v 0.000000 0.040589 0.124341
v 0.087922 0.040589 0.087922
v 0.124341 0.040589 0.000000
v 0.087922 3.962654 -0.087922
v 0.000000 3.962654 -0.124341
v -0.087922 3.962654 -0.087922
v -0.124341 3.962654 0.000000
v -0.087922 3.962654 0.087922
v 0.000000 3.962654 0.124341
v 0.087922 3.962654 0.087922
v 0.124341 3.962654 0.000000
v 0.000000 0.040589 0.000000
v 0.000000 3.962654 0.000000
v -1.454744 3.863345 0.163733
v 1.454744 3.863345 0.163733
v -1.454744 5.197025 0.163733
v 1.454744 5.197025 0.163733
v -1.454744 5.197025 -0.163733
v 1.454744 5.197025 -0.163733
v -1.454744 3.863345 -0.163733
v 1.454744 3.863345 -0.163733
vt 0.065211 0.016088
vt 0.086288 0.016088
vt 0.065211 0.956332
vt 0.086288 0.956332
vt 0.107366 0.016088
vt 0.107366 0.956332
vt 0.164908 0.016088
vt 0.185985 0.016088
vt 0.164908 0.956332
vt 0.185985 0.956332
vt 0.207063 0.016088
vt 0.207063 0.956332
vt 0.651896 0.908705
vt 0.653691 0.979276
vt 0.364478 0.916017
vt 0.366274 0.986589
vt 0.511999 0.903281
vt 0.224581 0.910593
vt 0.510203 0.832709
vt 0.222785 0.840022
vt 0.320225 0.927451
vt 0.339179 0.935302
vt 0.320225 0.954256
vt 0.347030 0.954256
vt 0.301271 0.935302
vt 0.339179 0.973210
vt 0.293420 0.954256
vt 0.320225 0.981061
vt 0.301271 0.973210
vt 0.279434 0.973210
vt 0.260480 0.981061
vt 0.260480 0.954256
vt 0.241526 0.973210
vt 0.287285 0.954256
vt 0.233675 0.954256
vt 0.279434 0.935302
vt 0.241526 0.935302
vt 0.260480 0.927451
vt 0.661838 0.829499
vt 0.990050 0.828243
vt 0.661980 0.866440
vt 0.990191 0.865183
vt 0.661994 0.870293
vt 0.990206 0.869037
vt 0.662136 0.907234
vt 0.990347 0.905977
vt 0.057301 0.956332
vt 0.036223 0.956332
vt 0.057301 0.016088
vt 0.036223 0.016088
vt 0.015145 0.956332
vt 0.015145 0.016088
vt 0.115059 0.016088
vt 0.136137 0.016088
vt 0.115059 0.956332
vt 0.136137 0.956332
vt 0.157215 0.016088
vt 0.157215 0.956332
vt 0.598112 0.817276
vt 0.228013 0.817276
vt 0.598112 0.009887
vt 0.228013 0.009887
vt 0.976941 0.009887
vt 0.976941 0.817276
vt 0.606841 0.009887
vt 0.606841 0.817276
vn 0.707107 -0.000000 -0.707107
vn 0.000000 -0.000000 -1.000000
vn 0.707107 -0.000000 -0.707107
vn -0.000000 -0.000000 -1.000000
vn -0.707107 -0.000000 -0.707107
vn -0.707107 0.000000 -0.707107
vn -1.000000 0.000000 -0.000000
vn -1.000000 0.000000 0.000000
vn -0.707107 0.000000 0.707107
vn -0.707107 -0.000000 0.707107
vn -0.000000 -0.000000 1.000000
vn -0.000000 0.000000 1.000000
vn 0.707107 0.000000 0.707107
vn 0.707107 0.000000 0.707107
vn 1.000000 0.000000 0.000000
vn 1.000000 0.000000 -0.000000
vn 0.000000 -1.000000 0.000000
vn 0.000000 -1.000000 0.000000
vn 0.000000 -1.000000 0.000000
vn 0.000000 -1.000000 0.000000
vn 0.000000 -1.000000 0.000000
vn 0.000000 -1.000000 0.000000
vn 0.000000 -1.000000 0.000000
vn 0.000000 -1.000000 0.000000
vn 0.000000 -1.000000 0.000000
vn 0.000000 1.000000 0.000000
vn 0.000000 1.000000 0.000000
vn 0.000000 1.000000 0.000000
vn 0.000000 1.000000 0.000000
vn 0.000000 1.000000 0.000000
vn 0.000000 1.000000 0.000000
vn 0.000000 1.000000 0.000000
vn 0.000000 1.000000 0.000000
vn 0.000000 1.000000 0.000000
vn 0.000000 0.000000 1.000000
vn 0.000000 0.000000 1.000000
vn 0.000000 0.000000 1.000000
vn 0.000000 0.000000 1.000000
vn 0.000000 0.000000 -1.000000
vn 0.000000 0.000000 -1.000000
vn 0.000000 0.000000 -1.000000
vn 0.000000 0.000000 -1.000000
vn 0.000000 1.000000 0.000000
vn 0.000000 1.000000 0.000000
vn 0.000000 1.000000 0.000000
vn 0.000000 1.000000 0.000000
vn 0.000000 -1.000000 0.000000
vn 0.000000 -1.000000 0.000000
vn 0.000000 -1.000000 0.000000
vn 0.000000 -1.000000 0.000000
vn -1.000000 0.000000 0.000000
vn -1.000000 0.000000 0.000000
vn -1.000000 0.000000 0.000000
vn -1.000000 0.000000 0.000000
vn 1.000000 0.000000 0.000000
vn 1.000000 0.000000 0.000000
vn 1.000000 0.000000 0.000000
vn 1.000000 0.000000 0.000000
s 1
g pCylinder2
usemtl initialShadingGroup
f 1/47/1 2/48/2 9/49/3
f 9/49/3 2/48/2 10/50/4
f 2/48/2 3/51/5 10/50/4
f 10/50/4 3/51/5 11/52/6
f 3/1/5 4/2/7 11/3/6
f 11/3/6 4/2/7 12/4/8
f 4/2/7 5/5/9 12/4/8
f 12/4/8 5/5/9 13/6/10
f 5/53/9 6/54/11 13/55/10
f 13/55/10 6/54/11 14/56/12
f 6/54/11 7/57/13 14/56/12
f 14/56/12 7/57/13 15/58/14
f 7/7/13 8/8/15 15/9/14
f 15/9/14 8/8/15 16/10/16
f 8/8/15 1/11/1 16/10/16
f 16/10/16 1/11/1 9/12/3
s 2
f 2/21/17 1/22/18 17/23/19
f 3/25/20 2/21/17 17/23/19
f 4/27/21 3/25/20 17/23/19
f 5/29/22 4/27/21 17/23/19
f 6/28/23 5/29/22 17/23/19
f 7/26/24 6/28/23 17/23/19
f 8/24/25 7/26/24 17/23/19
f 1/22/18 8/24/25 17/23/19
s 3
f 9/30/26 10/31/27 18/32/28
f 10/31/27 11/33/29 18/32/28
f 11/33/29 12/35/30 18/32/28
f 12/35/30 13/37/31 18/32/28
f 13/37/31 14/38/32 18/32/28
f 14/38/32 15/36/33 18/32/28
f 15/36/33 16/34/34 18/32/28
f 16/34/34 9/30/26 18/32/28
s 4
f 21/59/35 19/60/36 22/61/37
f 22/61/37 19/60/36 20/62/38
s 5
f 26/63/39 25/64/40 24/65/41
f 24/65/41 25/64/40 23/66/42
s 6
f 21/39/43 22/40/44 23/41/45
f 23/41/45 22/40/44 24/42/46
s 7
f 25/43/47 26/44/48 19/45/49
f 19/45/49 26/44/48 20/46/50
s 8
f 25/13/51 19/14/52 23/15/53
f 23/15/53 19/14/52 21/16/54
s 9
f 26/17/55 24/18/56 20/19/57
f 20/19/57 24/18/56 22/20/58
